<svg width="36" height="44" viewBox="0 0 36 44" fill="none" xmlns="http://www.w3.org/2000/svg">
<path d="M26.1591 7.26717C25.3559 3.48096 23.0613 0.899498 22.0287 0.383225C19.7053 -0.778413 18.9309 1.07159 17.8983 1.07159C16.8656 1.07159 16.0913 -0.778518 13.7679 0.383225C12.7354 0.899498 10.4406 3.48096 9.63751 7.26717C8.83439 11.0534 17.8983 7.95553 17.8983 7.95553C17.8983 7.95553 26.9622 11.0534 26.1591 7.26717Z" fill="#FFD24F"/>
<path d="M17.8983 18.5868C26.6426 18.5868 33.7314 15.967 33.7314 12.7354C33.7314 9.50372 26.6426 6.88396 17.8983 6.88396C9.1539 6.88396 2.06519 9.50372 2.06519 12.7354C2.06519 15.967 9.1539 18.5868 17.8983 18.5868Z" fill="#FFBE1E"/>
<path d="M8.58248 16.9719C7.55056 16.7138 6.87454 17.2654 6.87454 18.3488C6.87454 19.7829 8.26225 23.2966 9.7211 21.1023C11.18 18.908 8.58248 16.9719 8.58248 16.9719Z" fill="#FFE1B2"/>
<path d="M27.0388 16.9719C28.1652 16.7138 28.9032 17.2654 28.9032 18.3488C28.9032 19.7829 27.3885 23.2966 25.796 21.1023C24.2036 18.908 27.0388 16.9719 27.0388 16.9719Z" fill="#FFE1B2"/>
<path d="M10.3354 29.4895C11.8749 28.4983 11.7027 25.5481 11.7027 24.8598H24.0939C24.0939 25.5481 23.9029 28.4983 25.4423 29.4895L17.8983 37.9393L10.3354 29.4895Z" fill="#FFD7A3"/>
<path d="M22.717 32.4322L25.4423 29.4895C23.9028 28.4984 24.0939 25.5481 24.0939 24.8598H11.7027C12.5917 27.4158 18.472 31.8012 22.717 32.4322Z" fill="#FDC88E"/>
<path d="M33.7314 44C34.872 44 35.7965 43.0754 35.7965 41.9348V37.8331C35.7965 34.8041 33.4362 31.5705 30.5514 30.6474L26.2446 29.2694C23.9275 31.0411 20.6162 33.458 17.8983 33.458C15.1804 33.458 11.869 31.0411 9.55193 29.2694L5.24516 30.6474C2.36031 31.5705 0 34.8041 0 37.8331V41.9348C0 43.0754 0.924582 44 2.06519 44H33.7314Z" fill="#FF6953"/>
<path d="M35.7517 42.3607H34.683V40.9134H35.7965V39.8595H34.683V38.4121H35.7965V37.833C35.7965 37.6752 35.7864 37.5167 35.7738 37.3583H34.683V35.911H35.4925C35.3836 35.5535 35.2481 35.2012 35.0862 34.8571H34.683V34.1022C34.2994 33.4635 33.8311 32.8723 33.2996 32.3559H32.1819V31.4467C31.6678 31.1042 31.1205 30.8295 30.5515 30.6473L28.0741 29.8546H27.1795V29.5682L26.2447 29.2691C26.206 29.2988 26.1649 29.3298 26.1256 29.3597V29.8546H25.4701C24.8919 30.2862 24.2707 30.7328 23.6243 31.1609V32.3558H22.177V32.0522C20.9628 32.7359 19.7166 33.2592 18.5504 33.4096H18.622V34.8569H17.1747V33.4096H17.2462C16.08 33.2592 14.8337 32.7358 13.6195 32.0521V32.3557H12.1722V31.1608C11.5259 30.7327 10.9047 30.2861 10.3265 29.8545H9.67098V29.3596C9.63175 29.3297 9.59053 29.2986 9.55182 29.269L8.61709 29.5681V29.8545H7.72243L5.24505 30.6472C4.67606 30.8293 4.12871 31.104 3.61464 31.4466V32.3558H2.49704C1.9656 32.8722 1.49724 33.4632 1.11362 34.1021V34.857H0.710437C0.548703 35.2011 0.413123 35.5533 0.304114 35.9109H1.11362V37.3583H0.0227012C0.0101475 37.5167 0 37.6752 0 37.833V38.4121H1.11352V39.8595H0V40.9134H1.11352V42.3607H0.0449842C0.130977 42.7703 0.339055 43.1336 0.628419 43.4146H1.11352V43.7575C1.39953 43.9072 1.71997 44 2.06519 44H2.16751V43.4146H3.61485V44H4.66884V43.4146H6.11597V44H7.16985V43.4146H8.6172V44H9.67108V43.4146H11.1184V44H12.1723V43.4146H13.6196V44H14.6736V43.4146H16.121V44H17.1749V43.4146H18.6222V44H19.6761V43.4146H21.1234V44H22.1773V43.4146H23.6247V44H24.6785V43.4146H26.1259V44H27.1798V43.4146H28.6271V44H29.681V43.4146H31.1283V44H32.1823V43.4146H33.6297V44H33.732C34.0772 44 34.3976 43.9072 34.6837 43.7575V43.4146H35.1688C35.4575 43.1336 35.6657 42.7703 35.7517 42.3607ZM3.61474 42.3607H2.1674V40.9134H3.61474V42.3607ZM3.61474 39.8596H2.1674V38.4122H3.61474V39.8596ZM3.61474 37.3584H2.1674V35.911H3.61474V37.3584ZM3.61474 34.8571H2.1674V33.4098H3.61474V34.8571ZM6.11597 42.3607H4.66863V40.9134H6.11597V42.3607ZM6.11597 39.8596H4.66863V38.4122H6.11597V39.8596ZM6.11597 37.3584H4.66863V35.911H6.11597V37.3584ZM6.11597 34.8571H4.66863V33.4098H6.11597V34.8571ZM6.11597 32.3559H4.66863V30.9086H6.11597V32.3559ZM8.6172 42.3607H7.16985V40.9134H8.6172V42.3607ZM8.6172 39.8596H7.16985V38.4122H8.6172V39.8596ZM8.6172 37.3584H7.16985V35.911H8.6172V37.3584ZM8.6172 34.8571H7.16985V33.4098H8.6172V34.8571ZM8.6172 32.3559H7.16985V30.9086H8.6172V32.3559ZM11.1183 42.3607H9.67098V40.9134H11.1183V42.3607ZM11.1183 39.8596H9.67098V38.4122H11.1183V39.8596ZM11.1183 37.3584H9.67098V35.911H11.1183V37.3584ZM11.1183 34.8571H9.67098V33.4098H11.1183V34.8571ZM11.1183 32.3559H9.67098V30.9086H11.1183V32.3559ZM13.6195 42.3607H12.1722V40.9134H13.6195V42.3607ZM13.6195 39.8596H12.1722V38.4122H13.6195V39.8596ZM13.6195 37.3584H12.1722V35.911H13.6195V37.3584ZM13.6195 34.8571H12.1722V33.4098H13.6195V34.8571ZM16.1208 42.3607H14.6734V40.9134H16.1208V42.3607ZM16.1208 39.8596H14.6734V38.4122H16.1208V39.8596ZM16.1208 37.3584H14.6734V35.911H16.1208V37.3584ZM16.1208 34.8571H14.6734V33.4098H16.1208V34.8571ZM18.6219 42.3607H17.1746V40.9134H18.6219V42.3607ZM18.6219 39.8596H17.1746V38.4122H18.6219V39.8596ZM18.6219 37.3584H17.1746V35.911H18.6219V37.3584ZM21.1231 42.3607H19.6758V40.9134H21.1231V42.3607ZM21.1231 39.8596H19.6758V38.4122H21.1231V39.8596ZM21.1231 37.3584H19.6758V35.911H21.1231V37.3584ZM21.1231 34.8571H19.6758V33.4098H21.1231V34.8571ZM23.6243 42.3607H22.177V40.9134H23.6243V42.3607ZM23.6243 39.8596H22.177V38.4122H23.6243V39.8596ZM23.6243 37.3584H22.177V35.911H23.6243V37.3584ZM23.6243 34.8571H22.177V33.4098H23.6243V34.8571ZM26.1256 42.3607H24.6782V40.9134H26.1256V42.3607ZM26.1256 39.8596H24.6782V38.4122H26.1256V39.8596ZM26.1256 37.3584H24.6782V35.911H26.1256V37.3584ZM26.1256 34.8571H24.6782V33.4098H26.1256V34.8571ZM26.1256 32.3559H24.6782V30.9086H26.1256V32.3559ZM28.6267 42.3607H27.1794V40.9134H28.6267V42.3607ZM28.6267 39.8596H27.1794V38.4122H28.6267V39.8596ZM28.6267 37.3584H27.1794V35.911H28.6267V37.3584ZM28.6267 34.8571H27.1794V33.4098H28.6267V34.8571ZM28.6267 32.3559H27.1794V30.9086H28.6267V32.3559ZM31.1279 42.3607H29.6806V40.9134H31.1279V42.3607ZM31.1279 39.8596H29.6806V38.4122H31.1279V39.8596ZM31.1279 37.3584H29.6806V35.911H31.1279V37.3584ZM31.1279 34.8571H29.6806V33.4098H31.1279V34.8571ZM31.1279 32.3559H29.6806V30.9086H31.1279V32.3559ZM33.6291 42.3607H32.1818V40.9134H33.6291V42.3607ZM33.6291 39.8596H32.1818V38.4122H33.6291V39.8596ZM33.6291 37.3584H32.1818V35.911H33.6291V37.3584ZM33.6291 34.8571H32.1818V33.4098H33.6291V34.8571Z" fill="#E95F43"/>
<path d="M17.8983 33.4579L15.026 36.3302C14.7269 36.6293 14.2313 36.5904 13.9824 36.2483L8.94913 29.3274L10.5524 27.7241C10.8114 27.4652 11.2276 27.4543 11.4997 27.6992L17.8983 33.4579Z" fill="#FFBE1E"/>
<path d="M17.8983 33.4579L20.7705 36.3302C21.0696 36.6293 21.5652 36.5904 21.8141 36.2483L26.8474 29.3274L25.2441 27.7241C24.9852 27.4652 24.5689 27.4543 24.2968 27.6992L17.8983 33.4579Z" fill="#FFBE1E"/>
<path d="M8.68999 12.317C8.52899 13.2909 8.5202 14.4618 8.5202 15.8533C8.5202 21.3661 11.609 28.2445 17.8984 28.2445C24.1877 28.2445 27.2765 21.3661 27.2765 15.8533C27.2765 14.4617 27.2677 13.2909 27.1067 12.317C24.5837 11.4668 21.3835 10.957 17.8985 10.957C14.4134 10.957 11.2129 11.4667 8.68999 12.317Z" fill="#FFE1B2"/>
<path d="M27.3117 13.4306C26.7607 12.7235 26.1697 11.997 26.1697 11.997V12.6854C26.3405 18.9239 24.1206 21.6345 24.1206 21.6345L21.292 21.9512C19.0861 22.1982 16.8599 22.1982 14.654 21.9512L11.8254 21.6345C11.8254 21.6345 9.6055 18.9239 9.77623 12.6854V11.997C9.77623 11.997 9.18526 12.7234 8.63426 13.4306C8.49073 14.0446 8.26068 14.7122 8.26068 15.4449C8.26068 20.9576 11.5598 28.9057 17.973 28.9057C24.3862 28.9057 27.5358 20.9576 27.5358 15.4449C27.5359 14.7122 27.4553 14.0446 27.3117 13.4306ZM15.9238 23.2695H20.0222C20.5841 23.2695 21.0658 23.6119 21.2757 24.1006C20.519 24.4324 19.3576 24.6462 18.0484 24.6462C16.6661 24.6462 15.4513 24.4073 14.7013 24.0431C14.9237 23.5866 15.385 23.2695 15.9238 23.2695Z" fill="#A7795E"/>
<path d="M18.264 22.6571C18.264 21.7481 17.382 21.5423 16.8012 21.7626C15.7363 22.1666 14.5639 23.2934 13.5743 22.5965C13.5743 22.5965 13.9185 24.051 14.4992 24.051C15.6609 24.0509 18.264 24.2025 18.264 22.6571Z" fill="#543D38"/>
<path d="M17.9856 22.6571C17.9856 21.7481 18.8676 21.5423 19.4485 21.7626C20.5133 22.1666 21.6857 23.2934 22.6753 22.5965C22.6753 22.5965 22.3311 24.051 21.7504 24.051C20.5887 24.0509 17.9856 24.2025 17.9856 22.6571Z" fill="#543D38"/>
<path d="M29.6011 30.2536L26.8475 29.3724V37.8429C26.8475 38.158 26.6384 38.4366 26.3325 38.5119C24.0022 39.0859 21.0792 39.4294 17.8984 39.4294C14.7176 39.4294 11.7945 39.0859 9.46425 38.5119C9.15825 38.4366 8.94924 38.158 8.94924 37.8429V29.3724L6.19568 30.2536V44H29.6012V30.2536H29.6011Z" fill="#C55F54"/>
<path d="M8.30692 17.0609L10.1658 17.4037C10.1658 17.4037 10.8917 13.3329 11.2809 11.6417C10.2656 11.8443 9.30809 12.0881 8.43518 12.3743C8.26968 13.3482 8.26068 14.5191 8.26068 15.9106C8.26079 16.2885 8.27711 16.673 8.30692 17.0609Z" fill="#543D38"/>
<path d="M27.4896 17.0609L25.6307 17.4037C25.6307 17.4037 24.9048 13.3329 24.5157 11.6417C25.5309 11.8443 26.4885 12.0881 27.3614 12.3743C27.5269 13.3482 27.5359 14.5191 27.5359 15.9106C27.5359 16.2885 27.5195 16.673 27.4896 17.0609Z" fill="#543D38"/>
<path d="M21.9427 13.3234L23.5945 11.4432C21.8409 11.1331 19.9203 10.957 17.8983 10.957C16.6677 10.957 15.4754 11.0237 14.3331 11.1433C15.413 11.0695 19.6623 11.6417 21.9427 13.3234Z" fill="#543D38"/>
</svg>
